<svg xmlns="http://www.w3.org/2000/svg" width="80.41" height="43.33" viewBox="0 0 80.41 43.33">
  <g id="pattern_2_" data-name="pattern (2)" transform="translate(0.02 15)">
    <path id="Path_32" data-name="Path 32" d="M-.02,27.33c9.613,0,13.705-5.39,18.736-11.092C23.865,10.405,29.54,4.369,40.185,4.369S56.5,10.405,61.653,16.237c5.031,5.7,9.124,11.092,18.736,11.092M-.02,18.148c9.613,0,13.705-5.391,18.736-11.094C23.865,1.221,29.54-4.816,40.185-4.816S56.5,1.221,61.653,7.054c5.031,5.7,9.124,11.091,18.736,11.095m-.023-9.183c-9.613,0-13.682-5.394-18.713-11.1C56.5-7.964,50.829-14,40.185-14S23.865-7.964,18.716-2.13C13.685,3.572,9.593,8.961-.02,8.963" fill="none" stroke="#FFFFFF" stroke-width="2"/>
  </g>
</svg>
